<?xml version="1.0" encoding="UTF-8"?>
<!DOCTYPE svg PUBLIC "-//W3C//DTD SVG 1.1//EN" "http://www.w3.org/Graphics/SVG/1.1/DTD/svg11.dtd">
<svg xmlns="http://www.w3.org/2000/svg" version="1.1" width="180px" height="180px" style="shape-rendering:geometricPrecision; text-rendering:geometricPrecision; image-rendering:optimizeQuality; fill-rule:evenodd; clip-rule:evenodd" xmlns:xlink="http://www.w3.org/1999/xlink">
<g><path style="opacity:0.997" fill="#010101" d="M 9.5,-0.5 C 62.8333,-0.5 116.167,-0.5 169.5,-0.5C 173.167,2.5 176.5,5.83333 179.5,9.5C 179.5,62.8333 179.5,116.167 179.5,169.5C 176.5,173.167 173.167,176.5 169.5,179.5C 116.167,179.5 62.8333,179.5 9.5,179.5C 5.83333,176.5 2.5,173.167 -0.5,169.5C -0.5,116.167 -0.5,62.8333 -0.5,9.5C 2.5,5.83333 5.83333,2.5 9.5,-0.5 Z"/></g>
<g><path style="opacity:1" fill="#f9f9f9" d="M 158.5,44.5 C 162.5,44.5 166.5,44.5 170.5,44.5C 170.475,65.5061 170.142,86.5061 169.5,107.5C 166.167,107.5 162.833,107.5 159.5,107.5C 159,86.5032 158.667,65.5032 158.5,44.5 Z"/></g>
<g><path style="opacity:1" fill="#f7f7f7" d="M 15.5,47.5 C 17.0174,47.5106 18.1841,48.1772 19,49.5C 26.0226,60.2253 33.5226,70.5586 41.5,80.5C 50.1424,69.8948 58.3091,58.8948 66,47.5C 68.6667,49.5 71.3333,51.5 74,53.5C 66.441,65.77 57.941,77.6034 48.5,89C 57.9241,101.847 67.5908,114.513 77.5,127C 74.8333,129 72.1667,131 69.5,133C 67.6133,133.163 66.1133,132.329 65,130.5C 57.4109,119.656 49.5776,108.989 41.5,98.5C 32.8649,110.143 24.1982,121.81 15.5,133.5C 12.3603,131.527 9.36029,129.36 6.5,127C 15.9551,114.589 25.2884,102.089 34.5,89.5C 26,78.5 17.5,67.5 9,56.5C 8.33333,55.5 8.33333,54.5 9,53.5C 11.3353,51.5998 13.502,49.5998 15.5,47.5 Z"/></g>
<g><path style="opacity:1" fill="#fafafa" d="M 89.5,48.5 C 106.167,48.5 122.833,48.5 139.5,48.5C 139.5,51.5 139.5,54.5 139.5,57.5C 126.5,57.5 113.5,57.5 100.5,57.5C 100.5,66.5 100.5,75.5 100.5,84.5C 111.833,84.5 123.167,84.5 134.5,84.5C 134.5,87.5 134.5,90.5 134.5,93.5C 123.5,93.5 112.5,93.5 101.5,93.5C 100.506,103.319 100.173,113.319 100.5,123.5C 113.833,123.5 127.167,123.5 140.5,123.5C 140.5,126.833 140.5,130.167 140.5,133.5C 123.5,133.5 106.5,133.5 89.5,133.5C 89.5,105.167 89.5,76.8333 89.5,48.5 Z"/></g>
<g><path style="opacity:1" fill="#7e7e7e" d="M 89.5,48.5 C 106.325,47.5034 123.325,47.1701 140.5,47.5C 140.5,51.1667 140.5,54.8333 140.5,58.5C 127.5,58.5 114.5,58.5 101.5,58.5C 101.5,66.8333 101.5,75.1667 101.5,83.5C 112.833,83.5 124.167,83.5 135.5,83.5C 135.813,87.0419 135.479,90.3752 134.5,93.5C 134.5,90.5 134.5,87.5 134.5,84.5C 123.167,84.5 111.833,84.5 100.5,84.5C 100.5,75.5 100.5,66.5 100.5,57.5C 113.5,57.5 126.5,57.5 139.5,57.5C 139.5,54.5 139.5,51.5 139.5,48.5C 122.833,48.5 106.167,48.5 89.5,48.5 Z"/></g>
<g><path style="opacity:1" fill="#f5f5f5" d="M 160.5,118.5 C 172.133,118.267 175.133,123.1 169.5,133C 164.271,135.71 160.104,134.543 157,129.5C 155.662,124.96 156.829,121.293 160.5,118.5 Z"/></g>
<g><path style="opacity:1" fill="#727272" d="M 101.5,93.5 C 101.5,103.167 101.5,112.833 101.5,122.5C 114.677,122.171 127.677,122.505 140.5,123.5C 127.167,123.5 113.833,123.5 100.5,123.5C 100.173,113.319 100.506,103.319 101.5,93.5 Z"/></g>
</svg>
