<?xml version="1.0" standalone="no"?>
<!DOCTYPE svg PUBLIC "-//W3C//DTD SVG 20010904//EN"
 "http://www.w3.org/TR/2001/REC-SVG-20010904/DTD/svg10.dtd">
<svg version="1.0" xmlns="http://www.w3.org/2000/svg"
 width="48.000000pt" height="48.000000pt" viewBox="0 0 48.000000 48.000000"
 preserveAspectRatio="xMidYMid meet">

<g transform="translate(0.000000,48.000000) scale(0.100000,-0.100000)"
fill="#000000" stroke="none">
<path d="M16 464 c-24 -23 -24 -425 0 -448 23 -24 425 -24 448 0 24 23 24 425
0 448 -23 24 -425 24 -448 0z m441 -185 c-5 -74 -11 -99 -21 -88 -2 2 -7 41
-11 87 -7 81 -7 82 15 82 22 0 23 -2 17 -81z m-360 6 c14 -20 14 -20 35 5 11
14 27 34 34 45 10 13 17 16 24 9 7 -7 0 -25 -24 -56 l-35 -46 35 -47 c23 -30
33 -52 29 -63 -6 -15 -9 -13 -26 10 -11 14 -28 37 -39 50 -19 23 -19 23 -33 3
-38 -52 -55 -68 -66 -61 -8 5 -3 18 17 44 46 59 46 59 8 111 -25 34 -32 51
-24 54 12 5 33 -14 65 -58z m278 50 c0 -5 -24 -11 -53 -13 l-53 -3 3 -32 c3
-30 6 -32 46 -35 56 -4 54 -22 -3 -22 l-45 0 0 -40 0 -40 56 0 c40 0 55 -3 52
-12 -3 -8 -29 -14 -71 -16 l-67 -3 0 116 0 116 68 -3 c37 -2 67 -7 67 -13z
m83 -192 c-2 -10 -10 -18 -18 -18 -8 0 -16 8 -18 18 -2 12 3 17 18 17 15 0 20
-5 18 -17z"/>
</g>
</svg>
